<svg width="18" height="18" viewBox="0 0 18 18" fill="none" xmlns="http://www.w3.org/2000/svg">
<path d="M15.4084 2.59132C14.7091 1.89342 13.7615 1.50146 12.7735 1.50146C11.7855 1.50146 10.8379 1.89342 10.1386 2.59132L8.73546 3.9945L2.42143 10.3088C2.30665 10.4234 2.23224 10.5723 2.20941 10.7329L1.50756 15.6438C1.49234 15.7502 1.50016 15.8586 1.5305 15.9617C1.56083 16.0648 1.61297 16.1602 1.68338 16.2414C1.75379 16.3226 1.84083 16.3877 1.9386 16.4323C2.03637 16.4769 2.14259 16.5 2.25006 16.5C2.28559 16.5001 2.32108 16.4976 2.35626 16.4925L7.26756 15.791C7.42811 15.7678 7.57686 15.6933 7.69161 15.5786L15.4091 7.8618C15.7552 7.51576 16.0298 7.10493 16.2171 6.65277C16.4044 6.20061 16.5008 5.71598 16.5008 5.22656C16.5008 4.73714 16.4044 4.25251 16.2171 3.80035C16.0298 3.3482 15.7552 2.93737 15.4091 2.59132H15.4084ZM6.80758 14.3416L3.13408 14.866L3.65908 11.1928L9.26593 5.58555L12.415 8.73435L6.80758 14.3416ZM14.3476 6.8013L13.4753 7.67385L10.3261 4.5249L11.1991 3.65182C11.6233 3.24704 12.1872 3.0212 12.7735 3.0212C13.3598 3.0212 13.9237 3.24704 14.3479 3.65182C14.7654 4.06953 14.9999 4.63596 14.9999 5.22656C14.9999 5.81716 14.7654 6.38359 14.3479 6.8013H14.3476Z" fill="white"/>
</svg>
