<svg width="19" height="20" viewBox="0 0 19 20" fill="none" xmlns="http://www.w3.org/2000/svg">
<path d="M17.1289 20H1.12891C0.86369 20 0.609336 19.8946 0.421799 19.7071C0.234263 19.5196 0.128906 19.2652 0.128906 19V1C0.128906 0.734784 0.234263 0.48043 0.421799 0.292893C0.609336 0.105357 0.86369 0 1.12891 0H17.1289C17.3941 0 17.6485 0.105357 17.836 0.292893C18.0236 0.48043 18.1289 0.734784 18.1289 1V19C18.1289 19.2652 18.0236 19.5196 17.836 19.7071C17.6485 19.8946 17.3941 20 17.1289 20ZM5.12891 5V7H13.1289V5H5.12891ZM5.12891 9V11H13.1289V9H5.12891ZM5.12891 13V15H13.1289V13H5.12891Z" fill="#101F37"/>
</svg>
