<svg width="18" height="19" viewBox="0 0 18 19" fill="none" xmlns="http://www.w3.org/2000/svg">
<path d="M18 18C18 18.2652 17.8946 18.5196 17.7071 18.7071C17.5196 18.8946 17.2652 19 17 19H1C0.734784 19 0.48043 18.8946 0.292893 18.7071C0.105357 18.5196 7.92656e-08 18.2652 7.92656e-08 18V7.31399C-6.00579e-05 7.16294 0.0340991 7.01384 0.0999132 6.87788C0.165727 6.74193 0.261486 6.62264 0.38 6.52899L8.38 0.217992C8.55655 0.078483 8.77499 0.00259399 9 0.00259399C9.22501 0.00259399 9.44345 0.078483 9.62 0.217992L17.62 6.52799C17.7386 6.62175 17.8345 6.74119 17.9003 6.87733C17.9661 7.01348 18.0002 7.16277 18 7.31399V18ZM4 9.99999C4 11.3261 4.52678 12.5978 5.46447 13.5355C6.40215 14.4732 7.67392 15 9 15C10.3261 15 11.5979 14.4732 12.5355 13.5355C13.4732 12.5978 14 11.3261 14 9.99999H12C12 10.7956 11.6839 11.5587 11.1213 12.1213C10.5587 12.6839 9.79565 13 9 13C8.20435 13 7.44129 12.6839 6.87868 12.1213C6.31607 11.5587 6 10.7956 6 9.99999H4Z" fill="#101F37"/>
</svg>
