<svg width="18" height="18" viewBox="0 0 18 18" fill="none" xmlns="http://www.w3.org/2000/svg">
<path d="M6.3 10.8V13.5H11.7V10.8H18V17.1C18 17.3387 17.9052 17.5676 17.7364 17.7364C17.5676 17.9052 17.3387 18 17.1 18H0.9C0.661305 18 0.432387 17.9052 0.263604 17.7364C0.0948212 17.5676 0 17.3387 0 17.1V10.8H6.3ZM8.1 9H9.9V11.7H8.1V9ZM4.5 3.6V0.9C4.5 0.661305 4.59482 0.432387 4.7636 0.263604C4.93239 0.0948211 5.1613 0 5.4 0H12.6C12.8387 0 13.0676 0.0948211 13.2364 0.263604C13.4052 0.432387 13.5 0.661305 13.5 0.9V3.6H17.1C17.3387 3.6 17.5676 3.69482 17.7364 3.8636C17.9052 4.03239 18 4.26131 18 4.5V9H11.7V7.2H6.3V9H0V4.5C0 4.26131 0.0948212 4.03239 0.263604 3.8636C0.432387 3.69482 0.661305 3.6 0.9 3.6H4.5ZM6.3 1.8V3.6H11.7V1.8H6.3Z" fill="#101F37"/>
</svg>
