<svg width="15" height="13" viewBox="0 0 15 13" fill="none" xmlns="http://www.w3.org/2000/svg">
<path d="M13.0252 1.88125C12.706 1.56188 12.327 1.30853 11.9098 1.13568C11.4926 0.962826 11.0455 0.873859 10.5939 0.873859C10.1424 0.873859 9.69526 0.962826 9.2781 1.13568C8.86094 1.30853 8.48192 1.56188 8.1627 1.88125L7.5002 2.54375L6.8377 1.88125C6.19289 1.23644 5.31834 0.874194 4.40645 0.874194C3.49455 0.874194 2.62 1.23644 1.9752 1.88125C1.33039 2.52606 0.96814 3.4006 0.96814 4.3125C0.96814 5.2244 1.33039 6.09894 1.9752 6.74375L2.6377 7.40625L7.5002 12.2688L12.3627 7.40625L13.0252 6.74375C13.3446 6.42453 13.5979 6.04551 13.7708 5.62835C13.9436 5.21119 14.0326 4.76406 14.0326 4.3125C14.0326 3.86095 13.9436 3.41382 13.7708 2.99665C13.5979 2.57949 13.3446 2.20047 13.0252 1.88125Z" fill="#DE5B6B" stroke="#DE5B6B" stroke-linecap="round" stroke-linejoin="round"/>
</svg>
