<svg width="18" height="22" viewBox="0 0 18 22" fill="none" xmlns="http://www.w3.org/2000/svg">
<path d="M16.9683 16.667L17.3683 17.2C17.424 17.2743 17.4579 17.3626 17.4662 17.4551C17.4746 17.5476 17.457 17.6406 17.4155 17.7236C17.3739 17.8067 17.3101 17.8765 17.2311 17.9253C17.1521 17.9741 17.0611 18 16.9683 18H0.968262C0.875406 18 0.784384 17.9741 0.705396 17.9253C0.626408 17.8765 0.562575 17.8067 0.521048 17.7236C0.479522 17.6406 0.461943 17.5476 0.470282 17.4551C0.478621 17.3626 0.512548 17.2743 0.568262 17.2L0.968262 16.667V8C0.968262 5.87827 1.81112 3.84344 3.31141 2.34315C4.8117 0.842855 6.84653 0 8.96826 0C11.09 0 13.1248 0.842855 14.6251 2.34315C16.1254 3.84344 16.9683 5.87827 16.9683 8V16.667ZM6.46826 19H11.4683C11.4683 19.663 11.2049 20.2989 10.736 20.7678C10.2672 21.2366 9.6313 21.5 8.96826 21.5C8.30522 21.5 7.66934 21.2366 7.20049 20.7678C6.73165 20.2989 6.46826 19.663 6.46826 19Z" fill="#101F37"/>
</svg>
