<svg width="16" height="9" viewBox="0 0 16 9" fill="none" xmlns="http://www.w3.org/2000/svg">
<path d="M0.413863 7.258H1.42186L3.70386 0.859999H2.82186V0.118H6.67186V0.859999H5.76186L8.11386 7.258H9.06586V8H5.85986V7.258H6.90986L6.11186 4.962H3.25586L2.47186 7.258H3.52186V8H0.413863V7.258ZM5.88786 4.22L4.73986 0.874H4.65586L3.47986 4.22H5.88786ZM15.3431 7.258V8H13.5651L13.5091 7.51C13.2105 7.734 12.9118 7.89733 12.6131 8C12.3145 8.10267 11.9785 8.154 11.6051 8.154C11.0451 8.154 10.5878 8 10.2331 7.692C9.8878 7.37467 9.71513 6.98267 9.71513 6.516C9.71513 5.91867 9.9158 5.48467 10.3171 5.214C10.7278 4.934 11.2645 4.794 11.9271 4.794C12.4031 4.794 12.9118 4.85467 13.4531 4.976V4.402C13.4531 3.982 13.3365 3.66467 13.1031 3.45C12.8791 3.23533 12.5618 3.128 12.1511 3.128C11.8805 3.128 11.5678 3.17467 11.2131 3.268C10.8678 3.352 10.5505 3.47333 10.2611 3.632L9.95313 2.96C10.2611 2.764 10.6158 2.61467 11.0171 2.512C11.4278 2.40933 11.8105 2.358 12.1651 2.358C12.8838 2.358 13.4485 2.53533 13.8591 2.89C14.2698 3.23533 14.4751 3.70667 14.4751 4.304V7.258H15.3431ZM10.6951 6.46C10.6951 6.74933 10.7885 6.98733 10.9751 7.174C11.1711 7.35133 11.4325 7.44 11.7591 7.44C12.3098 7.44 12.8745 7.23933 13.4531 6.838V5.578C12.9585 5.466 12.4731 5.41 11.9971 5.41C11.6238 5.41 11.3111 5.494 11.0591 5.662C10.8165 5.82067 10.6951 6.08667 10.6951 6.46Z" fill="white"/>
</svg>
