<svg width="19" height="12" viewBox="0 0 19 12" fill="none" xmlns="http://www.w3.org/2000/svg">
<path d="M1.38612 10.9521C1.2175 11.0752 1.02382 11.1367 0.805066 11.1367C0.590873 11.1367 0.419975 11.082 0.292371 10.9727C0.160209 10.8587 0.0941286 10.7288 0.0941286 10.583C0.0941286 10.4372 0.116915 10.3301 0.162488 10.2617C0.294649 10.3392 0.456433 10.3779 0.64784 10.3779C0.843803 10.3779 0.989636 10.3529 1.08534 10.3027C1.1856 10.248 1.2813 10.1751 1.37245 10.084L2.34315 7.20605L2.47987 6.73438C2.52089 6.5931 2.54139 6.46322 2.54139 6.34473C2.54139 5.93001 2.34543 5.66569 1.9535 5.55176C2.31353 5.41504 2.56646 5.26693 2.71229 5.10742C2.94016 4.85677 3.12017 4.52637 3.25233 4.11621L4.00428 1.59375C3.85845 1.39779 3.68527 1.2998 3.48475 1.2998C3.28423 1.2998 3.09738 1.3431 2.92421 1.42969C2.87863 1.34766 2.85585 1.25651 2.85585 1.15625C2.85585 1.05143 2.87636 0.953451 2.91737 0.862305C2.96294 0.771159 3.02447 0.691406 3.10194 0.623047C3.27512 0.477214 3.52121 0.404297 3.84022 0.404297C4.15923 0.404297 4.43039 0.5 4.6537 0.691406C4.88156 0.5 5.16412 0.404297 5.50136 0.404297C5.84315 0.404297 6.11431 0.495443 6.31483 0.677734C6.6065 0.495443 6.90272 0.404297 7.2035 0.404297C7.50428 0.404297 7.73671 0.461263 7.90077 0.575195C8.06939 0.689128 8.1537 0.844076 8.1537 1.04004C8.1537 1.13118 8.12636 1.21094 8.07167 1.2793C7.96685 1.20182 7.8438 1.16309 7.70253 1.16309C7.39719 1.16309 7.19895 1.37044 7.1078 1.78516L7.9828 4.58105C8.09218 4.93197 8.36561 5.2054 8.80311 5.40137C8.92616 5.45605 9.05149 5.50618 9.17909 5.55176C8.72336 5.70215 8.4955 5.92773 8.4955 6.22852C8.4955 6.34245 8.51372 6.44271 8.55018 6.5293L9.85585 10.0293C10.0564 10.2389 10.2592 10.3438 10.4642 10.3438C10.6693 10.3438 10.8288 10.305 10.9428 10.2275C10.9929 10.264 11.018 10.3324 11.018 10.4326C11.018 10.5329 11.002 10.6263 10.9701 10.7129C10.9382 10.7949 10.8881 10.8678 10.8197 10.9316C10.6739 11.0684 10.4597 11.1367 10.1771 11.1367C9.89458 11.1367 9.64849 11.0592 9.43886 10.9043C9.20188 11.0592 8.933 11.1367 8.63221 11.1367C8.33599 11.1367 8.08078 11.0615 7.86659 10.9111C7.66151 11.0615 7.41997 11.1367 7.14198 11.1367C6.86399 11.1367 6.63384 11.0798 6.45155 10.9658C6.26926 10.8473 6.17356 10.681 6.16444 10.4668C6.16444 10.3392 6.18951 10.2594 6.23964 10.2275C6.36268 10.305 6.48801 10.3438 6.61561 10.3438C6.88449 10.3438 7.07362 10.2891 7.183 10.1797L6.66346 8.43652H2.96522L2.51405 9.94727C2.7009 10.2344 2.92649 10.3779 3.19081 10.3779C3.45969 10.3779 3.66021 10.3392 3.79237 10.2617C3.8425 10.3438 3.86757 10.4577 3.86757 10.6035C3.86757 10.7448 3.79693 10.8701 3.65565 10.9795C3.51438 11.0843 3.33208 11.1367 3.10878 11.1367C2.88547 11.1367 2.68039 11.0798 2.49354 10.9658C2.32948 11.0798 2.14035 11.1367 1.92616 11.1367C1.71652 11.1367 1.53651 11.0752 1.38612 10.9521ZM6.38319 7.51367L4.79725 2.24316L3.23866 7.51367H6.38319ZM7.68886 9.18848C7.77089 9.18848 7.8119 9.09733 7.8119 8.91504C7.8119 8.59603 7.76405 8.28613 7.66835 7.98535L7.40858 7.18555C7.22629 6.58398 7.13514 6.20573 7.13514 6.05078C7.13059 5.79557 7.24224 5.62695 7.47011 5.54492C7.15565 5.48112 6.96425 5.38314 6.89589 5.25098C6.86399 5.19629 6.83664 5.15299 6.81386 5.12109C6.79563 5.08919 6.77512 5.05273 6.75233 5.01172C6.7341 4.96615 6.71132 4.90918 6.68397 4.84082C6.65663 4.77246 6.62017 4.67448 6.5746 4.54688L6.15077 3.26855C6.05051 2.94954 5.9024 2.70801 5.70643 2.54395C5.64719 2.49382 5.5925 2.46419 5.54237 2.45508C5.84771 3.55794 6.04823 4.26432 6.14393 4.57422C6.80474 6.60677 7.20122 7.81217 7.33339 8.19043L7.68886 9.18848ZM9.70546 9.80371L9.71913 9.84473L9.70546 9.80371ZM15.6262 10.3506C15.2114 10.8975 14.5894 11.1709 13.7599 11.1709C12.7482 11.1709 11.9894 10.8678 11.4836 10.2617C11.2648 10.002 11.1144 9.71257 11.0324 9.39355C10.9868 9.20215 10.9071 9.05632 10.7932 8.95605C10.6792 8.85124 10.5379 8.75781 10.3693 8.67578C10.6974 8.52539 10.9321 8.24284 11.0734 7.82812C11.2238 7.39062 11.4745 7.07389 11.8254 6.87793C12.2036 6.67285 12.6206 6.56576 13.0764 6.55664C13.5321 6.54297 13.8693 6.52702 14.0881 6.50879C14.3068 6.49056 14.5005 6.46094 14.6691 6.41992C14.9836 6.34701 15.2297 6.21257 15.4074 6.0166V4.99121C15.4074 4.54004 15.314 4.20964 15.1271 4C14.9448 3.79036 14.6646 3.68555 14.2863 3.68555C13.9126 3.68555 13.6346 3.75618 13.4523 3.89746C13.2746 4.03418 13.1857 4.21875 13.1857 4.45117C13.1857 4.80664 13.368 4.97982 13.7326 4.9707C13.6597 5.32617 13.4683 5.50391 13.1584 5.50391C13.0672 5.50391 12.9784 5.48796 12.8918 5.45605V5.47656C12.8918 5.59505 12.9465 5.67025 13.0558 5.70215C12.9419 5.87533 12.7505 5.95964 12.4816 5.95508C12.2127 5.95052 12.0031 5.80697 11.8527 5.52441C11.7844 5.54264 11.7046 5.55176 11.6135 5.55176C11.5269 5.55176 11.4289 5.52214 11.3195 5.46289C11.2147 5.40365 11.1304 5.32161 11.0666 5.2168C11.2945 5.08008 11.4335 4.86816 11.4836 4.58105C11.5383 4.23014 11.8185 3.87467 12.3244 3.51465C12.9351 3.08171 13.7144 2.86523 14.6623 2.86523C16.2346 2.86523 17.1939 3.34831 17.5402 4.31445C17.6542 4.63802 17.7111 5.02083 17.7111 5.46289V6.0166C17.7111 6.23991 17.7658 6.4222 17.8752 6.56348C17.9891 6.70475 18.1805 6.82096 18.4494 6.91211C18.1623 7.04427 17.9777 7.16276 17.8957 7.26758C17.7726 7.42708 17.7111 7.60938 17.7111 7.81445V9.86523C17.8433 10.207 18.0324 10.3779 18.2785 10.3779C18.4335 10.3779 18.5611 10.3392 18.6613 10.2617C18.7251 10.3483 18.757 10.4577 18.757 10.5898C18.757 10.7174 18.6909 10.8405 18.5588 10.959C18.4312 11.0775 18.2375 11.1367 17.9777 11.1367C17.718 11.1367 17.4764 11.0638 17.2531 10.918C17.0571 11.0638 16.8817 11.1367 16.7267 11.1367C16.5764 11.1367 16.4442 11.1208 16.3303 11.0889C16.2209 11.0615 16.1183 11.016 16.0226 10.9521C15.8085 10.8109 15.6763 10.6104 15.6262 10.3506ZM16.0568 9.18848C16.3211 9.08366 16.4601 8.58008 16.4738 7.67773C16.4738 7.48633 16.4738 7.26758 16.4738 7.02148C16.4738 6.77539 16.4715 6.56576 16.467 6.39258C16.467 6.21484 16.4647 6.04622 16.4601 5.88672C16.4419 5.3125 16.3895 4.9707 16.3029 4.86133C16.2163 4.7474 16.1343 4.6722 16.0568 4.63574V9.18848ZM13.5344 8.70312C13.5344 8.89453 13.5549 9.08138 13.5959 9.26367C13.6369 9.44596 13.6984 9.60547 13.7805 9.74219C13.9627 10.0293 14.2202 10.1729 14.5529 10.1729C14.8036 10.1729 15.0109 10.0703 15.175 9.86523C15.3299 9.66471 15.4074 9.40723 15.4074 9.09277V6.86426C15.1157 7.03288 14.742 7.14909 14.2863 7.21289C13.785 7.29036 13.5344 7.78711 13.5344 8.70312ZM12.509 10.2412C12.5545 10.2093 12.5773 10.1683 12.5773 10.1182C12.5773 10.0498 12.5454 9.9541 12.4816 9.83105C12.2538 9.41178 12.1398 9.06771 12.1398 8.79883C12.1398 8.52995 12.1489 8.33626 12.1672 8.21777C12.19 8.09928 12.2173 7.99902 12.2492 7.91699C12.2857 7.8304 12.3244 7.75521 12.3654 7.69141C12.411 7.6276 12.4497 7.57064 12.4816 7.52051C12.5409 7.41569 12.5705 7.34505 12.5705 7.30859C12.5705 7.26758 12.55 7.2334 12.509 7.20605C12.3221 7.29264 12.1854 7.39518 12.0988 7.51367C11.9439 7.72331 11.8299 7.99447 11.757 8.32715C11.7388 8.42285 11.5793 8.53906 11.2785 8.67578C11.5702 8.80794 11.7297 8.92415 11.757 9.02441C11.912 9.56673 12.1626 9.97233 12.509 10.2412Z" fill="white"/>
</svg>
