<svg width="16" height="22" viewBox="0 0 16 22" fill="none" xmlns="http://www.w3.org/2000/svg">
<path d="M14.3761 10.2911C15.9381 11.8521 15.9381 14.3851 14.3761 15.9471L8.71906 21.6041C8.32906 21.9941 7.69506 21.9941 7.30506 21.6041L1.64806 15.9471C0.0860624 14.3851 0.0860624 11.8521 1.64806 10.2901C3.21006 8.72813 5.74306 8.72813 7.30506 10.2901L8.01106 10.9971L8.71906 10.2901C10.2811 8.72813 12.8141 8.72813 14.3761 10.2901V10.2911ZM8.01206 0.311127C10.2221 0.311127 12.0121 2.10113 12.0121 4.31113C12.0121 6.52113 10.2221 8.31113 8.01206 8.31113C5.80206 8.31113 4.01206 6.52113 4.01206 4.31113C4.01206 2.10113 5.80206 0.311127 8.01206 0.311127Z" fill="#101F37"/>
</svg>
