<svg width="18" height="13" viewBox="0 0 18 13" fill="none" xmlns="http://www.w3.org/2000/svg">
<path d="M11.351 0.522461V0.939453C11.278 0.939453 11.1915 0.946289 11.0912 0.959961C10.9955 0.973633 10.8907 1.00098 10.7767 1.04199C10.6628 1.07845 10.5534 1.12858 10.4486 1.19238C10.3484 1.25618 10.2572 1.33594 10.1752 1.43164C9.97011 1.67318 9.83111 1.97852 9.75819 2.34766C9.68983 2.7168 9.65565 3.24089 9.65565 3.91992C9.65565 4.20247 9.66021 4.47135 9.66932 4.72656C9.67844 4.98177 9.68755 5.24837 9.69667 5.52637C9.70578 5.7998 9.7149 6.08691 9.72401 6.3877C9.73313 6.68392 9.73768 7.01432 9.73768 7.37891C9.73768 7.60221 9.73313 7.83691 9.72401 8.08301C9.7149 8.32454 9.69439 8.5638 9.66249 8.80078C9.63059 9.03776 9.58501 9.2679 9.52577 9.49121C9.47108 9.70996 9.40272 9.90137 9.32069 10.0654C9.17942 10.348 8.98345 10.6237 8.7328 10.8926C8.48215 11.1569 8.16542 11.3392 7.78261 11.4395V11.583H9.683C9.9382 11.583 10.1364 11.5352 10.2777 11.4395C10.4236 11.3392 10.5352 11.2116 10.6127 11.0566C10.6947 10.9017 10.7471 10.7354 10.7699 10.5576C10.7927 10.3799 10.8041 10.2067 10.8041 10.0381V9.59375H11.2553V10.0381C11.2553 10.3206 11.2302 10.5804 11.1801 10.8174C11.1345 11.0544 11.0502 11.2617 10.9271 11.4395C10.8086 11.6172 10.6446 11.7562 10.4349 11.8564C10.2253 11.9521 9.95643 12 9.62831 12H6.28553V11.583C6.61822 11.583 6.93723 11.5352 7.24257 11.4395C7.55246 11.3392 7.80083 11.1956 7.98768 11.0088C8.18365 10.8128 8.33632 10.5986 8.44569 10.3662C8.55507 10.1292 8.63482 9.87858 8.68495 9.61426C8.73508 9.34538 8.7647 9.06738 8.77382 8.78027C8.78293 8.48861 8.78749 8.19922 8.78749 7.91211C8.78749 7.42448 8.77382 6.9209 8.74647 6.40137H7.33143C7.27675 6.71582 7.2175 7.02572 7.1537 7.33105C7.09445 7.63639 7.02837 7.92806 6.95546 8.20605C6.79595 8.82129 6.6091 9.37956 6.39491 9.88086C6.18072 10.3776 5.91412 10.8037 5.59511 11.1592C5.28065 11.5146 4.90012 11.7904 4.4535 11.9863C4.01145 12.1823 3.49192 12.2803 2.89491 12.2803C2.46652 12.2803 2.07688 12.2074 1.72596 12.0615C1.37505 11.9157 1.07655 11.7152 0.830457 11.46C0.584363 11.2048 0.392957 10.8971 0.256238 10.5371C0.119519 10.1771 0.0511599 9.77832 0.0511599 9.34082C0.0511599 8.8623 0.130912 8.45671 0.290418 8.12402C0.449923 7.78678 0.650444 7.51335 0.89198 7.30371C1.13352 7.09408 1.39556 6.94368 1.67811 6.85254C1.96522 6.75684 2.24094 6.70898 2.50526 6.70898C2.82883 6.70898 3.11822 6.75911 3.37343 6.85938C3.63319 6.95508 3.84966 7.0918 4.02284 7.26953C4.19602 7.44727 4.32818 7.65234 4.41932 7.88477C4.51503 8.11719 4.56288 8.36328 4.56288 8.62305C4.56288 8.8099 4.53326 9.00358 4.47401 9.2041C4.41932 9.40462 4.33046 9.58691 4.20741 9.75098C4.08892 9.91504 3.93397 10.0518 3.74257 10.1611C3.55116 10.266 3.32557 10.3184 3.06581 10.3184C2.53261 10.3184 2.16119 10.1497 1.95155 9.8125C1.74192 9.4707 1.6371 9.04688 1.6371 8.54102H2.08143C2.08143 8.71875 2.09511 8.88965 2.12245 9.05371C2.14979 9.21777 2.19992 9.36361 2.27284 9.49121C2.35031 9.61426 2.45285 9.71452 2.58046 9.79199C2.70806 9.86491 2.86984 9.90137 3.06581 9.90137C3.33469 9.90137 3.57622 9.80111 3.79042 9.60059C4.00461 9.40007 4.11171 9.07422 4.11171 8.62305C4.11171 8.1582 3.95904 7.79362 3.6537 7.5293C3.35292 7.26042 2.97011 7.12598 2.50526 7.12598C2.25005 7.12598 2.00396 7.16699 1.76698 7.24902C1.53 7.3265 1.31809 7.4541 1.13124 7.63184C0.944389 7.80957 0.79172 8.03971 0.67323 8.32227C0.559298 8.60026 0.502332 8.93978 0.502332 9.34082C0.502332 9.81478 0.582084 10.2135 0.74159 10.5371C0.905652 10.8607 1.11073 11.1204 1.35682 11.3164C1.60747 11.5124 1.8718 11.6536 2.14979 11.7402C2.43234 11.8223 2.68983 11.8633 2.92225 11.8633C3.45546 11.8633 3.91802 11.7721 4.30995 11.5898C4.70188 11.4076 5.03684 11.1523 5.31483 10.8242C5.59738 10.4961 5.83208 10.1064 6.01893 9.65527C6.20578 9.2041 6.36757 8.70736 6.50428 8.16504C6.64556 7.60449 6.77089 7.01204 6.88026 6.3877C6.99419 5.76335 7.10585 5.15951 7.21522 4.57617C7.32915 3.99284 7.45448 3.4528 7.5912 2.95605C7.72792 2.45931 7.8897 2.05827 8.07655 1.75293C8.13124 1.65723 8.21555 1.54557 8.32948 1.41797C8.44797 1.28581 8.60064 1.17415 8.78749 1.08301V0.939453C8.31353 0.939453 7.81678 1.01465 7.29725 1.16504C6.77772 1.31543 6.32199 1.55241 5.93007 1.87598C5.66119 2.09928 5.44016 2.36816 5.26698 2.68262C5.0938 2.99707 5.00721 3.35938 5.00721 3.76953C5.00721 4.08398 5.07785 4.32552 5.21913 4.49414C5.3604 4.66276 5.5427 4.74707 5.766 4.74707C5.95285 4.74707 6.10096 4.69238 6.21034 4.58301C6.32427 4.46908 6.38124 4.32324 6.38124 4.14551C6.38124 3.94043 6.31516 3.80143 6.183 3.72852C6.05539 3.65104 5.92551 3.6123 5.79335 3.6123V3.19531C6.08957 3.19531 6.33567 3.27734 6.53163 3.44141C6.72759 3.60091 6.82557 3.83561 6.82557 4.14551C6.82557 4.44629 6.72531 4.69238 6.52479 4.88379C6.32427 5.0752 6.0759 5.1709 5.77968 5.1709C5.38775 5.1709 5.08697 5.04557 4.87733 4.79492C4.6677 4.53971 4.56288 4.20247 4.56288 3.7832C4.56288 3.3138 4.67225 2.89681 4.891 2.53223C5.10975 2.16309 5.38775 1.8418 5.72499 1.56836C6.27186 1.13086 6.89165 0.848307 7.58436 0.720703C8.27707 0.588542 9.05637 0.522461 9.92225 0.522461H11.351ZM8.53456 1.80762C8.39784 2.0127 8.27479 2.2679 8.16542 2.57324C8.05604 2.87402 7.95806 3.20671 7.87147 3.57129C7.78488 3.93587 7.70285 4.32324 7.62538 4.7334C7.55246 5.14355 7.47727 5.55827 7.39979 5.97754H8.7328C8.72369 5.79069 8.71913 5.59928 8.71913 5.40332C8.71913 5.20736 8.71913 5.00228 8.71913 4.78809C8.71913 4.38704 8.72596 4.03385 8.73964 3.72852C8.75331 3.41862 8.78065 3.1429 8.82167 2.90137C8.86268 2.65983 8.91965 2.44108 8.99257 2.24512C9.07004 2.04915 9.16574 1.86686 9.27968 1.69824C9.42095 1.49316 9.5759 1.33366 9.74452 1.21973C9.9177 1.10579 10.0886 1.01237 10.2572 0.939453C9.86529 0.957682 9.52805 1.03516 9.2455 1.17188C8.9675 1.30859 8.73052 1.52051 8.53456 1.80762ZM13.6828 6.12109C14.3937 6.12109 14.9452 6.38997 15.3371 6.92773C15.729 7.46094 15.925 8.33594 15.925 9.55273C15.925 9.84896 15.9295 10.1361 15.9387 10.4141C15.9478 10.6875 15.9751 10.9313 16.0207 11.1455C16.0663 11.3597 16.1437 11.5329 16.2531 11.665C16.367 11.7972 16.522 11.8633 16.718 11.8633C16.8775 11.8633 17.0028 11.8154 17.0939 11.7197C17.1896 11.6195 17.2603 11.4987 17.3058 11.3574C17.356 11.2161 17.3879 11.0658 17.4016 10.9062C17.4152 10.7467 17.4221 10.6032 17.4221 10.4756V9.87402H17.8664V10.4619C17.8664 10.7217 17.8482 10.9632 17.8117 11.1865C17.7752 11.4098 17.7069 11.6012 17.6066 11.7607C17.5109 11.9202 17.3788 12.0456 17.2101 12.1367C17.0415 12.2324 16.8273 12.2803 16.5676 12.2803C16.1756 12.2803 15.8589 12.1709 15.6174 11.9521C15.3804 11.7334 15.2254 11.4281 15.1525 11.0361H15.009C14.9269 11.3597 14.7606 11.6491 14.5099 11.9043C14.2639 12.1549 13.9312 12.2803 13.5119 12.2803C13.1382 12.2803 12.8215 12.1982 12.5617 12.0342C12.3019 11.8701 12.0877 11.6491 11.9191 11.3711C11.7505 11.0885 11.6275 10.765 11.55 10.4004C11.4771 10.0312 11.4406 9.63477 11.4406 9.21094C11.4406 8.22201 11.6389 7.46094 12.0353 6.92773C12.4318 6.38997 12.981 6.12109 13.6828 6.12109ZM13.6828 6.53809C12.7941 6.53809 12.3498 7.41992 12.3498 9.18359C12.3498 10.0632 12.4592 10.7308 12.6779 11.1865C12.9012 11.6377 13.2362 11.8633 13.6828 11.8633C14.1203 11.8633 14.4507 11.64 14.674 11.1934C14.8973 10.7422 15.009 10.0814 15.009 9.21094C15.009 8.33594 14.8973 7.67285 14.674 7.22168C14.4507 6.76595 14.1203 6.53809 13.6828 6.53809Z" fill="white"/>
</svg>
