<svg width="14" height="11" viewBox="0 0 14 11" fill="none" xmlns="http://www.w3.org/2000/svg">
<path d="M1.26339 5.912C1.26339 6.108 1.48739 6.808 1.65539 6.878C1.82339 6.962 2.04739 7.018 2.32739 7.032C1.92139 7.592 1.38939 8.334 0.983395 8.894C0.885395 9.048 0.647395 9.37 0.787395 9.552C0.969395 9.762 1.85139 10.252 2.01939 10.112C2.04739 10.098 2.04739 10.07 2.06139 10.042C2.08939 9.818 2.15939 9.706 2.25739 9.51C2.67739 8.768 3.27939 7.788 3.79739 7.004C4.55339 6.92 5.29539 6.738 6.06539 6.696C5.8974 7.746 5.7714 8.712 5.7714 9.384C5.78539 9.692 6.35939 10 6.69539 10C6.82139 10 6.8634 9.944 6.8634 9.832C6.8634 8.488 7.9694 3.336 8.79539 1.852C8.8514 1.754 8.9074 1.698 8.9774 1.614C8.99139 1.6 9.00539 1.572 9.00539 1.544C9.00539 1.334 8.05339 0.969999 7.7734 0.969999C7.7174 0.969999 7.63339 1.04 7.5494 1.18C7.36739 1.054 7.1854 0.969999 7.0594 1.11C5.72939 2.622 4.38539 4.316 3.06939 6.052H3.05539C2.49539 6.052 1.90739 5.926 1.40339 5.716C1.36139 5.702 1.33339 5.702 1.30539 5.73C1.27739 5.772 1.26339 5.842 1.26339 5.912ZM5.8694 5.898C5.40739 5.898 4.94539 5.94 4.48339 5.982C5.2814 4.806 6.14939 3.644 7.0034 2.58C6.72339 3.518 6.42939 4.764 6.20539 5.968C6.10739 5.926 5.9954 5.898 5.8694 5.898ZM10.0309 9.048C9.98891 9.496 10.3109 10 10.8009 10C12.0049 10 13.1669 6.864 13.5309 5.926C13.6149 5.688 13.2649 5.548 13.1669 5.786C12.8029 6.738 12.2149 8.376 11.3609 9.23C11.2489 9.342 11.1229 9.342 11.1649 9.132C11.3469 8.11 11.6969 6.486 12.1589 5.254C12.2149 5.114 12.3829 4.932 12.2289 4.82C12.0609 4.666 11.5989 4.414 11.3329 4.414C11.2489 4.414 11.1789 4.484 11.1229 4.596C11.1089 4.652 11.0809 4.736 11.0529 4.778C10.5489 4.526 10.0449 4.19 9.61091 4.442C8.22491 5.184 7.44091 7.606 7.62291 9.132C7.67891 9.636 7.98691 10 8.54691 10C9.17691 10 9.70891 9.272 10.1149 8.418C10.1149 8.46 10.1149 8.488 10.1009 8.516C10.0729 8.698 10.0589 8.866 10.0309 9.048ZM8.95291 9.272C8.72891 9.272 8.75691 8.768 8.77091 8.614C8.85491 7.41 9.59691 5.002 10.5629 5.002C10.7169 5.002 10.8289 5.072 10.8989 5.184C10.8429 5.296 10.8009 5.422 10.7589 5.548C10.5489 6.206 9.62491 9.272 8.95291 9.272Z" fill="white"/>
</svg>
