<svg width="17" height="10" viewBox="0 0 17 10" fill="none" xmlns="http://www.w3.org/2000/svg">
<path d="M6.82946 4.184V3.708C6.82946 2.80267 6.65212 2.154 6.29746 1.762C5.94279 1.36067 5.44346 1.16 4.79946 1.16C4.50079 1.16 4.21146 1.22067 3.93146 1.342C3.65146 1.46333 3.39479 1.65 3.16146 1.902C2.93746 2.154 2.73679 2.47133 2.55946 2.854C2.39146 3.22733 2.26546 3.67067 2.18146 4.184H6.82946ZM2.11146 5.08C2.11146 5.696 2.16746 6.242 2.27946 6.718C2.39146 7.18467 2.54546 7.58133 2.74146 7.908C2.82546 8.048 2.88146 8.16933 2.90946 8.272C2.94679 8.37467 2.96546 8.47733 2.96546 8.58C2.96546 8.73867 2.89079 8.87867 2.74146 9C2.60146 9.13067 2.41012 9.196 2.16746 9.196C2.00879 9.196 1.85012 9.14467 1.69146 9.042C1.54212 8.93933 1.41146 8.78067 1.29946 8.566C1.12212 8.22067 0.982123 7.80067 0.879457 7.306C0.77679 6.802 0.725457 6.28867 0.725457 5.766C0.725457 4.96333 0.842123 4.226 1.07546 3.554C1.31812 2.87267 1.64479 2.28933 2.05546 1.804C2.47546 1.30933 2.95612 0.926666 3.49746 0.656C4.04812 0.375999 4.63146 0.235999 5.24746 0.235999C6.26479 0.235999 7.02546 0.492666 7.52946 1.006C8.03346 1.51 8.28546 2.29867 8.28546 3.372V8.608C8.28546 8.78533 8.22479 8.92533 8.10346 9.028C7.98212 9.14 7.80012 9.196 7.55746 9.196C7.31479 9.196 7.13279 9.14 7.01146 9.028C6.89012 8.92533 6.82946 8.78533 6.82946 8.608V5.08H2.11146ZM14.37 3.302C15.21 3.302 15.8213 3.46067 16.204 3.778C16.5867 4.09533 16.778 4.51067 16.778 5.024C16.778 5.18267 16.75 5.34133 16.694 5.5C16.6473 5.65867 16.624 5.80333 16.624 5.934V8.58C16.624 8.73867 16.568 8.874 16.456 8.986C16.3533 9.08867 16.1807 9.14 15.938 9.14C15.686 9.14 15.504 9.08867 15.392 8.986C15.2893 8.874 15.238 8.73867 15.238 8.58V7.642C14.818 8.118 14.3233 8.496 13.754 8.776C13.1847 9.056 12.578 9.196 11.934 9.196C11.0847 9.196 10.4687 9.03267 10.086 8.706C9.71267 8.37 9.526 7.91733 9.526 7.348C9.526 6.86267 9.65667 6.382 9.918 5.906C10.1793 5.42067 10.534 4.98667 10.982 4.604C11.43 4.212 11.9433 3.89933 12.522 3.666C13.11 3.42333 13.726 3.302 14.37 3.302ZM13.88 4.128C13.4693 4.128 13.0913 4.20733 12.746 4.366C12.4007 4.51533 12.0973 4.716 11.836 4.968C11.584 5.22 11.3833 5.50933 11.234 5.836C11.094 6.16267 11.024 6.49867 11.024 6.844C11.024 7.28267 11.1453 7.62333 11.388 7.866C11.64 8.09933 11.9947 8.216 12.452 8.216C12.844 8.216 13.2127 8.14133 13.558 7.992C13.9033 7.83333 14.202 7.628 14.454 7.376C14.7153 7.124 14.9207 6.83467 15.07 6.508C15.2287 6.18133 15.308 5.84067 15.308 5.486C15.308 5.07533 15.1773 4.74867 14.916 4.506C14.664 4.254 14.3187 4.128 13.88 4.128Z" fill="white"/>
</svg>
