<svg width="21" height="14" viewBox="0 0 21 14" fill="none" xmlns="http://www.w3.org/2000/svg">
<path d="M12.3934 8.92C12.4868 8.99467 12.5334 9.09267 12.5334 9.214C12.5334 9.33533 12.4914 9.438 12.4074 9.522H10.4194L11.2174 12.182C11.2361 12.2473 11.2454 12.3313 11.2454 12.434C11.2454 12.5367 11.1801 12.6627 11.0494 12.812C10.9188 12.9613 10.7834 13.036 10.6434 13.036C10.3821 13.036 10.1768 12.9707 10.0274 12.84L9.03344 9.522H5.46344L4.76344 11.426C4.52077 12.07 4.17077 12.6253 3.71344 13.092C3.25611 13.5587 2.66344 13.792 1.93544 13.792C1.38477 13.792 0.955441 13.6473 0.647441 13.358C0.330108 13.0687 0.171441 12.6487 0.171441 12.098C0.171441 11.5473 0.306774 11.0527 0.577441 10.614C0.838774 10.166 1.18877 9.816 1.62744 9.564C2.50477 9.06 3.48477 8.808 4.56744 8.808L6.61144 3.04C6.70477 2.76933 6.80277 2.56867 6.90544 2.438C6.61611 1.46733 6.47144 0.935333 6.47144 0.841999C6.47144 0.739333 6.53677 0.627333 6.66744 0.505999C6.80744 0.375333 6.94744 0.309999 7.08744 0.309999C7.35811 0.309999 7.56811 0.375333 7.71744 0.505999L10.1954 8.808L12.0294 8.794C12.1881 8.794 12.3094 8.836 12.3934 8.92ZM1.93544 13.204C2.63544 13.204 3.24211 12.4993 3.75544 11.09L4.30144 9.536C3.27477 9.536 2.45811 9.77867 1.85144 10.264C1.25411 10.7493 0.955441 11.3887 0.955441 12.182C0.955441 12.5087 1.04411 12.7607 1.22144 12.938C1.40811 13.1153 1.64611 13.204 1.93544 13.204ZM7.43744 3.516L5.72944 8.808H8.80944L7.43744 3.516ZM17.0791 6.078C17.2004 5.80733 17.3917 5.672 17.6531 5.672C17.9237 5.672 18.1244 5.73733 18.2551 5.868V9.886C18.2551 10.418 18.3391 10.8193 18.5071 11.09C18.6751 11.3607 18.9037 11.496 19.1931 11.496C20.0704 11.496 20.5091 10.586 20.5091 8.766C20.5184 8.71 20.5884 8.682 20.7191 8.682C20.8871 8.682 20.9711 8.92933 20.9711 9.424C20.9711 10.2173 20.7984 10.852 20.4531 11.328C20.1171 11.804 19.6411 12.042 19.0251 12.042C18.0824 12.042 17.4571 11.6267 17.1491 10.796C16.9717 11.1787 16.7291 11.482 16.4211 11.706C16.1131 11.93 15.7631 12.042 15.3711 12.042C13.7377 12.042 12.9211 10.9733 12.9211 8.836C12.9211 7.75333 13.1731 6.95533 13.6771 6.442C14.1904 5.92867 14.8671 5.672 15.7071 5.672C16.3511 5.672 16.8084 5.80733 17.0791 6.078ZM14.4471 10.558C14.5777 10.9687 14.7271 11.23 14.8951 11.342C15.0631 11.4447 15.2871 11.496 15.5671 11.496C15.8471 11.496 16.1504 11.3233 16.4771 10.978C16.8131 10.6233 16.9811 10.166 16.9811 9.606V7.688C16.9811 7.24933 16.8644 6.89467 16.6311 6.624C16.4071 6.35333 16.1504 6.218 15.8611 6.218C15.5811 6.218 15.3571 6.246 15.1891 6.302C15.0211 6.358 14.8624 6.47467 14.7131 6.652C14.4051 6.988 14.2511 7.716 14.2511 8.836C14.2511 9.57333 14.3164 10.1473 14.4471 10.558Z" fill="white"/>
</svg>
