<svg width="16" height="11" viewBox="0 0 16 11" fill="none" xmlns="http://www.w3.org/2000/svg">
<path d="M7.8285 9.51465C7.8285 9.56478 7.81483 9.61491 7.78749 9.66504C7.76014 9.71061 7.72597 9.75391 7.68495 9.79492C7.64393 9.83138 7.59836 9.86328 7.54823 9.89062C7.4981 9.91341 7.45025 9.9248 7.40468 9.9248C7.37277 9.9248 7.34087 9.92253 7.30897 9.91797C7.27707 9.91341 7.24517 9.91113 7.21327 9.91113C7.17225 9.91113 7.14491 9.9248 7.13124 9.95215C7.11757 9.97493 7.10389 10 7.09022 10.0273C7.08111 10.0547 7.06516 10.0798 7.04237 10.1025C7.01958 10.1299 6.97857 10.1436 6.91932 10.1436C6.88287 10.1436 6.84413 10.139 6.80311 10.1299C6.7621 10.1208 6.72108 10.1162 6.68007 10.1162C6.59348 10.1162 6.50917 10.1322 6.42714 10.1641C6.34966 10.2005 6.26535 10.2188 6.17421 10.2188C6.09673 10.2188 5.98052 10.2051 5.82557 10.1777C5.67063 10.1549 5.5134 10.1162 5.35389 10.0615C5.19895 10.0114 5.06223 9.94987 4.94374 9.87695C4.82525 9.79948 4.766 9.71061 4.766 9.61035C4.766 9.53288 4.8093 9.4554 4.89589 9.37793C4.98703 9.2959 5.08729 9.20703 5.19667 9.11133C5.30604 9.01107 5.40402 8.89941 5.49061 8.77637C5.58176 8.65332 5.62733 8.50977 5.62733 8.3457C5.62733 8.25 5.60682 8.15658 5.56581 8.06543C5.52935 7.97428 5.4815 7.88997 5.42225 7.8125C5.36301 7.73047 5.29465 7.65527 5.21718 7.58691C5.14426 7.51855 5.07362 7.45475 5.00526 7.39551C4.98248 7.38639 4.9483 7.38184 4.90272 7.38184C4.77968 7.38184 4.65663 7.39551 4.53358 7.42285C4.41054 7.44564 4.28749 7.45703 4.16444 7.45703C4.10064 7.45703 4.03456 7.44792 3.9662 7.42969C3.9024 7.41146 3.8591 7.36589 3.83632 7.29297C3.71783 7.35221 3.59934 7.40918 3.48085 7.46387C3.36236 7.514 3.24159 7.55957 3.11854 7.60059C3.04107 7.62793 2.9841 7.64844 2.94764 7.66211C2.91574 7.67578 2.89068 7.69173 2.87245 7.70996C2.85878 7.72819 2.84738 7.75553 2.83827 7.79199C2.83371 7.82845 2.81776 7.88086 2.79042 7.94922C2.77219 7.99479 2.76307 8.03581 2.76307 8.07227C2.76307 8.10872 2.76307 8.14974 2.76307 8.19531C2.76307 8.25456 2.75168 8.30241 2.72889 8.33887C2.70611 8.37077 2.68104 8.40267 2.6537 8.43457C2.63091 8.46191 2.60813 8.49154 2.58534 8.52344C2.56255 8.55534 2.55116 8.59635 2.55116 8.64648C2.55116 8.6875 2.558 8.72396 2.57167 8.75586L2.56483 8.79004C2.56483 8.8584 2.58306 8.91309 2.61952 8.9541C2.65598 8.99056 2.69927 9.02018 2.7494 9.04297C2.80409 9.0612 2.86106 9.07943 2.9203 9.09766C2.97955 9.11589 3.03195 9.13867 3.07753 9.16602C3.1231 9.19336 3.16639 9.23893 3.20741 9.30273C3.25298 9.36198 3.29172 9.42806 3.32362 9.50098C3.36008 9.56934 3.3897 9.63997 3.41249 9.71289C3.43527 9.78125 3.44667 9.84049 3.44667 9.89062V9.9248H3.3578C3.17551 9.9248 2.99322 9.93392 2.81093 9.95215C2.63319 9.96582 2.45546 9.98177 2.27772 10C2.09999 10.0228 1.91998 10.041 1.73768 10.0547C1.55995 10.0729 1.37994 10.082 1.19764 10.082C1.13384 10.082 1.04042 10.0798 0.917371 10.0752C0.798882 10.0706 0.680392 10.057 0.561903 10.0342C0.443413 10.016 0.338595 9.98405 0.247449 9.93848C0.160861 9.88835 0.117567 9.81771 0.117567 9.72656C0.117567 9.63086 0.138074 9.55111 0.17909 9.4873C0.224663 9.4235 0.281629 9.37109 0.349988 9.33008C0.422905 9.28451 0.502658 9.24805 0.589246 9.2207C0.680392 9.1888 0.769259 9.15918 0.855848 9.13184C0.946994 9.10449 1.0313 9.07715 1.10878 9.0498C1.19081 9.02246 1.25917 8.986 1.31386 8.94043C1.36854 8.89486 1.41412 8.82194 1.45057 8.72168C1.48703 8.61686 1.51666 8.50521 1.53944 8.38672C1.56223 8.26823 1.58274 8.15202 1.60097 8.03809C1.61919 7.9196 1.63514 7.82617 1.64882 7.75781C1.65337 7.73503 1.65565 7.70768 1.65565 7.67578C1.66021 7.63932 1.66249 7.60286 1.66249 7.56641C1.66705 7.52995 1.66932 7.49577 1.66932 7.46387C1.67388 7.43197 1.68072 7.40918 1.68983 7.39551C1.73541 7.31803 1.76958 7.27246 1.79237 7.25879C1.81972 7.24512 1.83794 7.23372 1.84706 7.22461C1.86073 7.21549 1.86757 7.19271 1.86757 7.15625C1.87212 7.11523 1.8744 7.0332 1.8744 6.91016C1.8744 6.85547 1.8858 6.81445 1.90858 6.78711C1.93137 6.75521 1.95416 6.72786 1.97694 6.70508C2.00429 6.68229 2.02935 6.66178 2.05214 6.64355C2.07492 6.62077 2.08632 6.59115 2.08632 6.55469C2.08632 6.49089 2.06809 6.43392 2.03163 6.38379C1.99517 6.3291 1.97694 6.26986 1.97694 6.20605C1.97694 6.1696 1.98606 6.1377 2.00429 6.11035C2.02251 6.08301 2.04302 6.05794 2.06581 6.03516C2.09315 6.01237 2.11594 5.98958 2.13417 5.9668C2.1524 5.93945 2.16151 5.90755 2.16151 5.87109C2.16151 5.82096 2.15012 5.77083 2.12733 5.7207C2.1091 5.67057 2.09999 5.62044 2.09999 5.57031C2.09999 5.53385 2.11138 5.50879 2.13417 5.49512C2.16151 5.47689 2.18886 5.46322 2.2162 5.4541C2.2481 5.44499 2.27544 5.43815 2.29823 5.43359C2.32557 5.42448 2.33925 5.41309 2.33925 5.39941C2.32557 5.37207 2.30051 5.3584 2.26405 5.3584C2.20936 5.3584 2.18202 5.38802 2.18202 5.44727C2.15012 5.42448 2.12277 5.39941 2.09999 5.37207C2.0772 5.34017 2.06581 5.30599 2.06581 5.26953C2.06581 5.22396 2.0772 5.18294 2.09999 5.14648C2.12277 5.10547 2.14784 5.0599 2.17518 5.00977C2.20708 4.95964 2.23443 4.90267 2.25722 4.83887C2.28 4.77507 2.29139 4.69759 2.29139 4.60645C2.29139 4.51074 2.27772 4.4196 2.25038 4.33301C2.22304 4.24186 2.20936 4.15072 2.20936 4.05957C2.20936 4.014 2.21848 3.96842 2.23671 3.92285C2.25949 3.87728 2.28456 3.83398 2.3119 3.79297C2.3438 3.7474 2.37343 3.7041 2.40077 3.66309C2.43267 3.61751 2.45546 3.56966 2.46913 3.51953C2.49647 3.43294 2.51014 3.3418 2.51014 3.24609C2.5147 3.15039 2.51698 3.05469 2.51698 2.95898C2.52154 2.86328 2.52837 2.76986 2.53749 2.67871C2.55116 2.58301 2.58078 2.49414 2.62636 2.41211C2.66737 2.33919 2.69927 2.27995 2.72206 2.23438C2.74485 2.1888 2.76535 2.14551 2.78358 2.10449C2.80181 2.05892 2.81776 2.01107 2.83143 1.96094C2.84511 1.90625 2.85878 1.83561 2.87245 1.74902C2.89524 1.61686 2.92942 1.48926 2.97499 1.36621C3.02512 1.24316 3.0593 1.11556 3.07753 0.983398C3.08664 0.883138 3.0912 0.798828 3.0912 0.730469C3.09576 0.657552 3.10715 0.59375 3.12538 0.539062C3.14817 0.484375 3.18462 0.436523 3.23475 0.395508C3.28944 0.354492 3.37147 0.313477 3.48085 0.272461C3.59934 0.231445 3.71783 0.204102 3.83632 0.19043C3.95481 0.172201 4.0733 0.163086 4.19179 0.163086C4.3285 0.163086 4.46978 0.169922 4.61561 0.183594C4.62929 0.261068 4.65891 0.331706 4.70448 0.395508C4.75005 0.454753 4.79791 0.513997 4.84804 0.573242C4.90272 0.632487 4.95285 0.69401 4.99843 0.757812C5.04856 0.817057 5.08274 0.885417 5.10097 0.962891C5.12375 1.06771 5.13742 1.16797 5.14198 1.26367C5.1511 1.35482 5.18983 1.44596 5.25819 1.53711C5.29009 1.58724 5.30604 1.64648 5.30604 1.71484C5.30604 1.81966 5.29237 1.91992 5.26503 2.01562C5.23768 2.11133 5.22401 2.20931 5.22401 2.30957C5.22401 2.36882 5.24224 2.4668 5.2787 2.60352C5.31516 2.74023 5.35845 2.88835 5.40858 3.04785C5.45871 3.2028 5.50656 3.35547 5.55214 3.50586C5.59771 3.65169 5.63189 3.76562 5.65468 3.84766C5.69569 4.02083 5.7162 4.19857 5.7162 4.38086C5.72076 4.56315 5.75038 4.74089 5.80507 4.91406C5.85975 5.09635 5.90761 5.27865 5.94862 5.46094C5.98964 5.63867 6.01698 5.82324 6.03065 6.01465C6.03977 6.19238 6.06255 6.36556 6.09901 6.53418C6.13547 6.69824 6.17421 6.86458 6.21522 7.0332C6.25624 7.19727 6.2927 7.36361 6.3246 7.53223C6.36106 7.70085 6.37929 7.8763 6.37929 8.05859C6.37929 8.12695 6.37245 8.19759 6.35878 8.27051C6.34966 8.34342 6.32004 8.40723 6.26991 8.46191C6.36561 8.57585 6.47271 8.69889 6.5912 8.83105C6.71425 8.96322 6.83501 9.06803 6.9535 9.14551C6.99908 9.17285 7.06972 9.19336 7.16542 9.20703C7.26112 9.2207 7.35682 9.23893 7.45253 9.26172C7.55279 9.27995 7.63938 9.30957 7.71229 9.35059C7.78977 9.38704 7.8285 9.44173 7.8285 9.51465ZM4.96425 5.83008C4.96425 5.78906 4.9483 5.73665 4.91639 5.67285C4.88449 5.60449 4.84804 5.5293 4.80702 5.44727C4.77056 5.36523 4.73638 5.27637 4.70448 5.18066C4.67258 5.08496 4.65663 4.9847 4.65663 4.87988C4.65663 4.75684 4.6384 4.63607 4.60194 4.51758C4.56548 4.39453 4.54042 4.27148 4.52675 4.14844C4.51763 4.04818 4.50624 3.9388 4.49257 3.82031C4.48345 3.69727 4.46067 3.58333 4.42421 3.47852C4.38775 3.36914 4.33078 3.28027 4.25331 3.21191C4.18039 3.139 4.0733 3.10254 3.93202 3.10254C3.92291 3.139 3.90695 3.16634 3.88417 3.18457C3.86138 3.19824 3.83404 3.21191 3.80214 3.22559C3.77479 3.2347 3.74517 3.24382 3.71327 3.25293C3.68137 3.26204 3.6563 3.27799 3.63807 3.30078C3.64263 3.31445 3.64491 3.33496 3.64491 3.3623C3.64491 3.44434 3.62668 3.52181 3.59022 3.59473C3.55832 3.66309 3.5287 3.73372 3.50136 3.80664C3.46945 3.88411 3.44667 3.96615 3.433 4.05273C3.42388 4.13477 3.41932 4.2168 3.41932 4.29883C3.41932 4.37174 3.4216 4.44238 3.42616 4.51074C3.43072 4.5791 3.433 4.64746 3.433 4.71582C3.433 4.82064 3.42388 4.91178 3.40565 4.98926C3.38742 5.06217 3.36692 5.13053 3.34413 5.19434C3.32134 5.25814 3.30083 5.31966 3.28261 5.37891C3.26438 5.43359 3.25526 5.49284 3.25526 5.55664C3.25526 5.69336 3.25982 5.81185 3.26893 5.91211C3.27805 6.01237 3.29856 6.09668 3.33046 6.16504C3.36236 6.22884 3.40793 6.27897 3.46718 6.31543C3.52642 6.34733 3.60845 6.36328 3.71327 6.36328C3.78619 6.36328 3.891 6.35417 4.02772 6.33594C4.169 6.31771 4.308 6.28809 4.44472 6.24707C4.58599 6.2015 4.70676 6.14453 4.80702 6.07617C4.91184 6.00781 4.96425 5.92578 4.96425 5.83008ZM15.3762 8.80371C15.3762 8.88118 15.3625 8.9541 15.3351 9.02246C15.3078 9.09082 15.2827 9.16146 15.2599 9.23438C15.2417 9.29818 15.228 9.35059 15.2189 9.3916C15.2144 9.43262 15.2053 9.46908 15.1916 9.50098C15.1779 9.52832 15.1551 9.55566 15.1232 9.58301C15.0959 9.60579 15.0503 9.63314 14.9865 9.66504C14.8498 9.73796 14.704 9.81315 14.549 9.89062C14.3986 9.96354 14.246 10 14.091 10C13.9588 10 13.8335 9.97038 13.715 9.91113C13.6011 9.84733 13.494 9.77897 13.3937 9.70605C13.298 9.62858 13.2092 9.55794 13.1271 9.49414C13.0497 9.43034 12.9836 9.39844 12.9289 9.39844C12.8696 9.39844 12.8172 9.41439 12.7717 9.44629C12.7307 9.47819 12.6874 9.51237 12.6418 9.54883C12.6008 9.58529 12.5529 9.61947 12.4982 9.65137C12.4481 9.68327 12.3843 9.69922 12.3068 9.69922C12.243 9.69922 12.1769 9.71061 12.1086 9.7334C12.0402 9.75618 11.9719 9.78353 11.9035 9.81543C11.8351 9.84277 11.7645 9.8724 11.6916 9.9043C11.6232 9.93164 11.5594 9.95443 11.5002 9.97266C11.2951 10.0273 11.0877 10.0592 10.8781 10.0684C10.673 10.0775 10.4657 10.082 10.256 10.082C10.2014 10.082 10.117 10.0798 10.0031 10.0752C9.88918 10.0752 9.77297 10.0638 9.65448 10.041C9.54055 10.0228 9.43801 9.99089 9.34686 9.94531C9.26027 9.89974 9.21698 9.83594 9.21698 9.75391C9.21698 9.73568 9.21926 9.71973 9.22382 9.70605C9.19191 9.74251 9.15546 9.77214 9.11444 9.79492C9.07343 9.81771 9.02785 9.8291 8.97772 9.8291C8.90481 9.8291 8.81594 9.77897 8.71112 9.67871C8.6063 9.57845 8.50604 9.46224 8.41034 9.33008C8.31464 9.19792 8.2326 9.06803 8.16425 8.94043C8.09589 8.80827 8.06171 8.71029 8.06171 8.64648C8.06171 8.59635 8.07538 8.55078 8.10272 8.50977C8.13462 8.46875 8.15057 8.42318 8.15057 8.37305C8.15057 8.30924 8.14146 8.25 8.12323 8.19531C8.10956 8.13607 8.10272 8.07454 8.10272 8.01074C8.10272 7.92871 8.11867 7.84212 8.15057 7.75098C8.18247 7.65527 8.22121 7.56185 8.26678 7.4707C8.31236 7.375 8.36021 7.28385 8.41034 7.19727C8.46047 7.10612 8.50604 7.02181 8.54706 6.94434C8.59263 6.85319 8.65643 6.78027 8.73846 6.72559C8.8205 6.6709 8.90708 6.62305 8.99823 6.58203C9.08938 6.54102 9.18052 6.5 9.27167 6.45898C9.36281 6.41797 9.44257 6.36328 9.51093 6.29492C9.57928 6.3724 9.66815 6.41113 9.77753 6.41113C9.89146 6.41113 10.0031 6.39518 10.1125 6.36328C10.2219 6.32682 10.3335 6.30859 10.4474 6.30859C10.5386 6.30859 10.6252 6.31771 10.7072 6.33594C10.7938 6.35417 10.8827 6.36328 10.9738 6.36328C11.0741 6.36328 11.147 6.35189 11.1926 6.3291C11.2427 6.30176 11.3042 6.25618 11.3771 6.19238C11.4501 6.12858 11.5412 6.08073 11.6506 6.04883C11.7645 6.01237 11.8807 5.98503 11.9992 5.9668C12.1223 5.94401 12.243 5.92122 12.3615 5.89844C12.4846 5.87565 12.5939 5.84375 12.6896 5.80273C12.7853 5.75716 12.8628 5.69792 12.9221 5.625C12.9813 5.54753 13.0109 5.44271 13.0109 5.31055C13.0109 5.16471 12.9676 5.01204 12.881 4.85254C12.799 4.68848 12.6919 4.54036 12.5598 4.4082C12.4276 4.27148 12.2818 4.15983 12.1223 4.07324C11.9627 3.98665 11.8101 3.94336 11.6642 3.94336C11.646 3.94336 11.6278 3.94564 11.6096 3.9502C11.5913 3.95475 11.5754 3.95703 11.5617 3.95703C11.4523 3.97526 11.3293 3.98893 11.1926 3.99805C11.0558 4.0026 10.9282 4.02311 10.8098 4.05957C10.6913 4.09147 10.591 4.14844 10.509 4.23047C10.4269 4.30794 10.3859 4.42415 10.3859 4.5791C10.3859 4.67025 10.3928 4.76139 10.4064 4.85254C10.4247 4.93913 10.4338 5.02799 10.4338 5.11914C10.4338 5.25586 10.3996 5.36979 10.3312 5.46094C10.2674 5.55208 10.1831 5.625 10.0783 5.67969C9.97805 5.73438 9.86639 5.77311 9.74335 5.7959C9.6203 5.81413 9.50181 5.82324 9.38788 5.82324C9.25116 5.82324 9.13267 5.80501 9.03241 5.76855C8.93215 5.7321 8.85012 5.64779 8.78632 5.51562C8.73619 5.41992 8.6815 5.31738 8.62225 5.20801C8.56757 5.09408 8.54022 4.98014 8.54022 4.86621C8.54022 4.74316 8.56073 4.62923 8.60175 4.52441C8.64732 4.41504 8.69745 4.31022 8.75214 4.20996C8.80682 4.10514 8.85923 4.0026 8.90936 3.90234C8.96405 3.79753 9.00279 3.68587 9.02557 3.56738C9.05747 3.54915 9.10077 3.53092 9.15546 3.5127C9.2147 3.49447 9.27622 3.47624 9.34003 3.45801C9.40839 3.43978 9.47219 3.42383 9.53143 3.41016C9.59524 3.39193 9.64764 3.37598 9.68866 3.3623C9.79803 3.3304 9.90285 3.29395 10.0031 3.25293C10.1079 3.20736 10.2127 3.16634 10.3176 3.12988C10.4269 3.09342 10.534 3.06152 10.6389 3.03418C10.7482 3.00684 10.8599 2.99089 10.9738 2.98633L11.1857 2.97949C11.3817 2.97949 11.5822 2.99772 11.7873 3.03418C11.9924 3.06608 12.1929 3.11849 12.3889 3.19141C12.5848 3.26432 12.7694 3.35547 12.9426 3.46484C13.1203 3.56966 13.2775 3.69499 13.4142 3.84082C13.5145 3.9502 13.5965 4.08008 13.6603 4.23047C13.7287 4.3763 13.7811 4.53125 13.8176 4.69531C13.8586 4.85938 13.8859 5.02572 13.8996 5.19434C13.9178 5.3584 13.9269 5.51107 13.9269 5.65234C13.9269 5.84375 13.9201 6.03288 13.9064 6.21973C13.8973 6.40202 13.8928 6.58887 13.8928 6.78027C13.8928 6.96257 13.9019 7.14486 13.9201 7.32715C13.9429 7.50488 13.968 7.6849 13.9953 7.86719C14.0226 8.04492 14.0454 8.22493 14.0637 8.40723C14.0864 8.58496 14.0978 8.7627 14.0978 8.94043C14.107 9.0498 14.1206 9.11816 14.1389 9.14551C14.1616 9.16829 14.1844 9.17969 14.2072 9.17969C14.3075 9.17969 14.3872 9.15007 14.4465 9.09082C14.5103 9.02702 14.5672 8.95866 14.6174 8.88574C14.6675 8.80827 14.7222 8.73763 14.7814 8.67383C14.8407 8.61003 14.9159 8.57812 15.007 8.57812C15.048 8.57812 15.0891 8.5804 15.1301 8.58496C15.1756 8.58952 15.2167 8.60091 15.2531 8.61914C15.2896 8.63281 15.3192 8.6556 15.342 8.6875C15.3648 8.71484 15.3762 8.75358 15.3762 8.80371ZM13.1271 7.10156C13.1271 7.07422 13.1249 7.02637 13.1203 6.95801C13.1203 6.88965 13.1157 6.82129 13.1066 6.75293C13.0975 6.68001 13.0816 6.61621 13.0588 6.56152C13.0405 6.50684 13.0109 6.47949 12.9699 6.47949C12.9608 6.47949 12.9494 6.48405 12.9357 6.49316C12.9221 6.49772 12.9107 6.5 12.9016 6.5C12.7284 6.5957 12.5803 6.67546 12.4572 6.73926C12.3342 6.7985 12.2111 6.84863 12.0881 6.88965C11.9696 6.92611 11.842 6.95117 11.7053 6.96484C11.5685 6.97852 11.3976 6.98535 11.1926 6.98535C11.1652 6.98535 11.09 6.99674 10.967 7.01953C10.8439 7.04232 10.7095 7.06966 10.5637 7.10156C10.4178 7.12891 10.2811 7.15853 10.1535 7.19043C10.0259 7.21777 9.94615 7.236 9.91425 7.24512C9.855 7.2679 9.81171 7.29069 9.78436 7.31348C9.76158 7.33626 9.74335 7.36133 9.72968 7.38867C9.716 7.41602 9.70233 7.44564 9.68866 7.47754C9.67499 7.50488 9.64992 7.53451 9.61346 7.56641C9.56789 7.60286 9.51776 7.63249 9.46307 7.65527C9.41294 7.67806 9.36509 7.71224 9.31952 7.75781C9.25116 7.82617 9.18736 7.91732 9.12811 8.03125C9.06887 8.14062 9.03925 8.24544 9.03925 8.3457C9.03925 8.46875 9.07115 8.57812 9.13495 8.67383C9.19875 8.76953 9.28306 8.85156 9.38788 8.91992C9.4927 8.98828 9.61119 9.04753 9.74335 9.09766C9.87551 9.14779 10.0077 9.18652 10.1398 9.21387C10.2766 9.24121 10.4064 9.26172 10.5295 9.27539C10.6571 9.28906 10.7665 9.2959 10.8576 9.2959C10.967 9.2959 11.0969 9.28906 11.2473 9.27539C11.3976 9.25716 11.548 9.2321 11.6984 9.2002C11.8488 9.16374 11.9901 9.11589 12.1223 9.05664C12.2544 8.9974 12.3592 8.9222 12.4367 8.83105C12.4686 8.7946 12.4914 8.7627 12.5051 8.73535C12.5187 8.70345 12.5324 8.67383 12.5461 8.64648C12.5643 8.61458 12.5825 8.58268 12.6008 8.55078C12.6236 8.51888 12.6577 8.4847 12.7033 8.44824C12.8081 8.36165 12.8879 8.26595 12.9426 8.16113C13.0018 8.05632 13.0451 7.94694 13.0724 7.83301C13.0998 7.71908 13.1157 7.60059 13.1203 7.47754C13.1249 7.35449 13.1271 7.22917 13.1271 7.10156Z" fill="white"/>
</svg>
